<?xml version="1.0" encoding="UTF-8"?>
<svg version="1.1" xmlns="http://www.w3.org/2000/svg" width="1080" height="1150">
<path d="M0 0 C1.1446875 -0.06058594 2.289375 -0.12117187 3.46875 -0.18359375 C9.12980231 0.22433822 13.73995349 3.59967389 18.5 6.4375 C20.49501011 7.57611954 22.4911279 8.7128002 24.48828125 9.84765625 C26.59733545 11.06340344 28.70537265 12.28091624 30.8125 13.5 C31.94840576 14.15629395 33.08431152 14.81258789 34.25463867 15.48876953 C43.10337981 20.60695209 51.90961393 25.79541555 60.703125 31.0078125 C67.3105186 34.9221996 73.93595693 38.80566398 80.5625 42.6875 C81.47789047 43.22380035 81.47789047 43.22380035 82.41177368 43.77093506 C85.52845292 45.59686421 88.64528568 47.42253106 91.76220703 49.24804688 C97.24057987 52.45679537 102.71752247 55.6679835 108.19454956 58.87902832 C111.2129722 60.64862266 114.23149105 62.41805288 117.25 64.1875 C118.45833379 64.89583255 119.66666713 65.60416588 120.875 66.3125 C121.473125 66.663125 122.07125 67.01375 122.6875 67.375 C244.12499999 138.56249999 244.12499999 138.56249999 245.93746948 139.62498474 C247.14590148 140.33337416 248.35433654 141.04175835 249.56277466 141.75013733 C252.58212354 143.52006979 255.60141931 145.29009272 258.62060547 147.06030273 C264.68599826 150.61643305 270.75229781 154.17100148 276.8203125 157.72265625 C284.05038986 161.95495688 291.27704157 166.19306115 298.5 170.4375 C299.11605103 170.79944458 299.73210205 171.16138916 300.36682129 171.53430176 C304.07787257 173.71525065 307.78687159 175.89963178 311.49334717 178.08834839 C313.18942873 179.08925514 314.88692514 180.08776319 316.58447266 181.08618164 C336.26246757 192.72490271 336.26246757 192.72490271 338.5 199.4375 C338.61414371 201.71839663 338.66676665 204.00249459 338.68945312 206.28613281 C338.69776626 206.99364056 338.70607939 207.7011483 338.71464443 208.43009567 C338.74157699 210.83358045 338.76140856 213.23707191 338.78125 215.640625 C338.79916008 217.39241913 338.81744665 219.14420945 338.83607483 220.89599609 C338.88651051 225.78259954 338.93025119 230.66924334 338.97252274 235.55592346 C339.00020549 238.71091972 339.02949018 241.86589715 339.05929565 245.02087402 C339.2015994 260.109304 339.32916574 275.19783411 339.45043629 290.28644681 C339.48392433 294.45247901 339.51779232 298.61850789 339.55198085 302.78453439 C339.8609648 340.4357383 340.12813961 378.08696506 340.32321537 415.7389428 C340.34427548 419.80106096 340.36563952 423.86317747 340.38720703 427.92529297 C340.39147115 428.72938964 340.39573527 429.53348632 340.4001286 430.36194956 C340.47011585 443.40574712 340.56765787 456.44920094 340.67601049 469.49273038 C340.78621621 482.81038088 340.87088519 496.12799857 340.93025684 509.44597435 C340.96699517 517.50485739 341.02379285 525.56304989 341.1078642 533.62158066 C341.1692182 539.71509235 341.19346504 545.80817011 341.20364571 551.90200615 C341.21357523 554.38287689 341.23551437 556.8637339 341.27052116 559.34437752 C341.31648248 562.72687753 341.31885797 566.10676171 341.31054688 569.48950195 C341.33414559 570.46033848 341.35774431 571.431175 341.38205814 572.43143082 C341.28974402 580.0549607 338.45823359 584.74399462 333.5 590.4375 C330.89892578 592.63574219 330.89892578 592.63574219 328.4453125 593.984375 C327.51396484 594.51160156 326.58261719 595.03882813 325.62304688 595.58203125 C324.63369141 596.11183594 323.64433594 596.64164063 322.625 597.1875 C321.57634766 597.77402344 320.52769531 598.36054687 319.44726562 598.96484375 C317.24413014 600.19419597 315.0353557 601.41349251 312.82128906 602.62304688 C308.56447125 604.94858863 304.33538696 607.32203658 300.10546875 609.69604492 C298.02385944 610.86334989 295.940503 612.02754441 293.85546875 613.1887207 C286.72541019 617.16284263 279.66193893 621.23856231 272.625 625.375 C263.11383166 630.96144485 253.50787425 636.35618917 243.85253906 641.68896484 C235.05923596 646.55225103 226.32574559 651.51214313 217.61010742 656.51257324 C209.35273532 661.24931151 201.06643571 665.93017367 192.75 670.5625 C184.61255787 675.0980499 176.53460007 679.72222361 168.5 684.4375 C159.43804322 689.75570259 150.30807762 694.93620852 141.13012695 700.05126953 C133.28902812 704.42501785 125.47984057 708.85262992 117.6875 713.3125 C117.10604218 713.64519897 116.52458435 713.97789795 115.92550659 714.32067871 C111.7827758 716.69139051 107.64123961 719.06418456 103.5 721.4375 C98.7716599 724.14727862 94.04279081 726.85612776 89.3125 729.5625 C88.44289642 730.06006805 88.44289642 730.06006805 87.5557251 730.56768799 C78.21964123 735.90710376 68.84727035 741.17960633 59.45605469 746.42138672 C52.80234923 750.13812997 46.17384715 753.89596758 39.5625 757.6875 C32.95712258 761.47309654 26.33824549 765.23209456 19.6875 768.9375 C18.6212439 769.53353027 18.6212439 769.53353027 17.53344727 770.14160156 C16.18534894 770.88995725 14.83233085 771.62953145 13.47412109 772.359375 C12.14111595 773.08736791 10.82604613 773.84905448 9.52978516 774.640625 C5.21418267 777.12797941 1.93894091 778.05766342 -3.01708984 777.20361328 C-8.34017603 775.5611507 -13.02617674 772.67197054 -17.8125 769.875 C-18.99707622 769.1978848 -20.18247938 768.5222145 -21.36865234 767.84790039 C-23.84381982 766.43725102 -26.31347681 765.01761204 -28.77880859 763.58984375 C-32.38180921 761.50323378 -35.99579769 759.43637564 -39.61328125 757.375 C-43.12647457 755.37211897 -46.63899617 753.3681469 -50.14672852 751.35571289 C-57.8187983 746.955099 -65.52327282 742.6163536 -73.25 738.3125 C-82.39745813 733.2139995 -91.45855897 727.98304851 -100.49023438 722.68261719 C-108.55961132 717.95837335 -116.70235203 713.37565822 -124.86987305 708.82373047 C-132.71097188 704.44998215 -140.52015943 700.02237008 -148.3125 695.5625 C-148.89395782 695.22980103 -149.47541565 694.89710205 -150.07449341 694.55432129 C-154.81114735 691.84373208 -159.54617902 689.13031413 -164.28112793 686.41674805 C-168.41582725 684.04733996 -172.55116363 681.6790492 -176.6875 679.3125 C-177.26723572 678.98078796 -177.84697144 678.64907593 -178.4442749 678.30731201 C-187.78777857 672.96365277 -197.16842209 667.68847717 -206.56591797 662.44042969 C-216.58392347 656.84208559 -226.54477105 651.14649489 -236.5 645.4375 C-241.08231657 642.8107208 -245.6655565 640.1855647 -250.25 637.5625 C-250.84313995 637.22303345 -251.43627991 636.88356689 -252.0473938 636.53381348 C-260.42081832 631.74347868 -268.82322477 627.0085542 -277.25 622.3125 C-286.51890059 617.14378528 -295.7260936 611.87881343 -304.8659668 606.48486328 C-309.53222982 603.73269584 -314.20870476 601.03054009 -318.98046875 598.46484375 C-320.27041748 597.75847778 -320.27041748 597.75847778 -321.58642578 597.0378418 C-323.16418531 596.17740126 -324.75166542 595.33438911 -326.35107422 594.51489258 C-332.46674748 591.14357394 -336.28201219 586.62438406 -339.5 580.4375 C-340.40636514 576.57427702 -340.40155785 572.90903232 -340.31054688 568.95458984 C-340.31314986 567.83823434 -340.31575285 566.72187883 -340.31843472 565.57169437 C-340.31859454 561.84635346 -340.26864027 558.12341872 -340.21875 554.3984375 C-340.20853844 551.71383125 -340.20112165 549.02935086 -340.19715881 546.34474182 C-340.1830192 540.55153385 -340.14304737 534.75896679 -340.08547974 528.96603394 C-340.0012433 520.48562951 -339.95636008 512.005354 -339.9202019 503.52462471 C-339.85970532 489.59023277 -339.76733103 475.65623725 -339.65576172 461.72216797 C-339.54832909 448.2915713 -339.45688988 434.86102335 -339.38720703 421.43017578 C-339.38293339 420.60834926 -339.37865975 419.78652275 -339.37425661 418.93979239 C-339.35280601 414.79941272 -339.33163303 410.65903168 -339.31056213 406.51865005 C-339.15515708 376.09049587 -338.94977918 345.66293486 -338.70397949 315.23538208 C-338.6859925 313.00690269 -338.66801128 310.77842325 -338.65004492 308.54994369 C-338.6382709 307.08961593 -338.62648137 305.62928831 -338.614676 304.16896081 C-338.5241809 292.94119974 -338.4483795 281.7134018 -338.38109493 270.48547459 C-338.32803889 261.69319089 -338.26558373 252.90101919 -338.19350529 244.10887051 C-338.15420574 239.28766731 -338.11926452 234.4665463 -338.09671021 229.64523315 C-338.07634553 225.33160314 -338.04259401 221.01830626 -337.99743462 216.70486641 C-337.98377556 215.17505124 -337.97508074 213.64518169 -337.97194099 212.11530876 C-337.96706556 210.06621556 -337.94232876 208.01719798 -337.91650391 205.96826172 C-337.90841705 204.84120819 -337.9003302 203.71415466 -337.89199829 202.552948 C-337.31536103 197.97006222 -335.73004985 194.62394734 -332.40625 191.41796875 C-328.37619192 188.67167917 -324.21445709 186.20154446 -320 183.75 C-319.04657715 183.19111084 -318.0931543 182.63222168 -317.11083984 182.05639648 C-315.02376072 180.83345949 -312.93566083 179.61226331 -310.84667969 178.39257812 C-307.37671871 176.36548099 -303.91050648 174.33210426 -300.4453125 172.296875 C-289.14068074 165.65912435 -277.82560243 159.03941143 -266.5 152.4375 C-257.72400826 147.32130235 -248.95250507 142.19749496 -240.1875 137.0625 C-239.57828705 136.70561096 -238.9690741 136.34872192 -238.34140015 135.98101807 C-229.4803588 130.78831633 -220.64150158 125.55952642 -211.8125 120.3125 C-201.89031815 114.41722466 -191.91640888 108.6182954 -181.91064453 102.86621094 C-174.24920848 98.45807064 -166.62589054 93.98997574 -159.02246094 89.48266602 C-151.50730918 85.02837014 -143.97536805 80.60319116 -136.4375 76.1875 C-135.82723969 75.82996643 -135.21697937 75.47243286 -134.58822632 75.10406494 C-131.47154708 73.27813579 -128.35471432 71.45246894 -125.23779297 69.62695312 C-119.75942013 66.41820463 -114.28247753 63.2070165 -108.80545044 59.99597168 C-105.7870278 58.22637734 -102.76850895 56.45694712 -99.75 54.6875 C-98.54166621 53.97916745 -97.33333287 53.27083412 -96.125 52.5625 C-93.70833333 51.14583333 -91.29166667 49.72916667 -88.875 48.3125 C-87.97784271 47.78657761 -87.97784271 47.78657761 -87.06256104 47.25003052 C-85.85403037 46.54158502 -84.64549359 45.83314996 -83.43695068 45.12472534 C-80.41908623 43.3556937 -77.40132784 41.58648164 -74.38378906 39.81689453 C-68.9111009 36.60776397 -63.43762625 33.40001302 -57.9602356 30.19891357 C-54.88964282 28.40432122 -51.81974441 26.60854304 -48.75 24.8125 C-48.15407043 24.46396973 -47.55814087 24.11543945 -46.94415283 23.75634766 C-40.34942835 19.8975102 -33.77123134 16.01354533 -27.2265625 12.0703125 C-26.6440271 11.71947601 -26.0614917 11.36863953 -25.46130371 11.00717163 C-22.69676083 9.34093387 -19.93510151 7.67013574 -17.17675781 5.99365234 C-16.20834961 5.40793457 -15.23994141 4.8222168 -14.2421875 4.21875 C-13.3951123 3.70376953 -12.54803711 3.18878906 -11.67529297 2.65820312 C-7.77637372 0.47025742 -4.41246055 0.16107433 0 0 Z " fill="#FEF758" transform="translate(559.5,190.5625)"/>
<path d="M0 0 C1.1446875 -0.06058594 2.289375 -0.12117187 3.46875 -0.18359375 C9.12980231 0.22433822 13.73995349 3.59967389 18.5 6.4375 C20.49501011 7.57611954 22.4911279 8.7128002 24.48828125 9.84765625 C26.59733545 11.06340344 28.70537265 12.28091624 30.8125 13.5 C31.94840576 14.15629395 33.08431152 14.81258789 34.25463867 15.48876953 C43.10337981 20.60695209 51.90961393 25.79541555 60.703125 31.0078125 C67.3105186 34.9221996 73.93595693 38.80566398 80.5625 42.6875 C81.47789047 43.22380035 81.47789047 43.22380035 82.41177368 43.77093506 C85.52845292 45.59686421 88.64528568 47.42253106 91.76220703 49.24804688 C97.24057987 52.45679537 102.71752247 55.6679835 108.19454956 58.87902832 C111.2129722 60.64862266 114.23149105 62.41805288 117.25 64.1875 C118.45833379 64.89583255 119.66666713 65.60416588 120.875 66.3125 C121.473125 66.663125 122.07125 67.01375 122.6875 67.375 C244.12499999 138.56249999 244.12499999 138.56249999 245.93746948 139.62498474 C247.14590148 140.33337416 248.35433654 141.04175835 249.56277466 141.75013733 C252.58212354 143.52006979 255.60141931 145.29009272 258.62060547 147.06030273 C264.68599826 150.61643305 270.75229781 154.17100148 276.8203125 157.72265625 C284.05038986 161.95495688 291.27704157 166.19306115 298.5 170.4375 C299.11605103 170.79944458 299.73210205 171.16138916 300.36682129 171.53430176 C304.07787257 173.71525065 307.78687159 175.89963178 311.49334717 178.08834839 C313.18942873 179.08925514 314.88692514 180.08776319 316.58447266 181.08618164 C336.26246757 192.72490271 336.26246757 192.72490271 338.5 199.4375 C338.61414371 201.71839663 338.66676665 204.00249459 338.68945312 206.28613281 C338.69776626 206.99364056 338.70607939 207.7011483 338.71464443 208.43009567 C338.74157699 210.83358045 338.76140856 213.23707191 338.78125 215.640625 C338.79916008 217.39241913 338.81744665 219.14420945 338.83607483 220.89599609 C338.88651051 225.78259954 338.93025119 230.66924334 338.97252274 235.55592346 C339.00020549 238.71091972 339.02949018 241.86589715 339.05929565 245.02087402 C339.2015994 260.109304 339.32916574 275.19783411 339.45043629 290.28644681 C339.48392433 294.45247901 339.51779232 298.61850789 339.55198085 302.78453439 C339.8609648 340.4357383 340.12813961 378.08696506 340.32321537 415.7389428 C340.34427548 419.80106096 340.36563952 423.86317747 340.38720703 427.92529297 C340.39147115 428.72938964 340.39573527 429.53348632 340.4001286 430.36194956 C340.47011585 443.40574712 340.56765787 456.44920094 340.67601049 469.49273038 C340.78621621 482.81038088 340.87088519 496.12799857 340.93025684 509.44597435 C340.96699517 517.50485739 341.02379285 525.56304989 341.1078642 533.62158066 C341.1692182 539.71509235 341.19346504 545.80817011 341.20364571 551.90200615 C341.21357523 554.38287689 341.23551437 556.8637339 341.27052116 559.34437752 C341.31648248 562.72687753 341.31885797 566.10676171 341.31054688 569.48950195 C341.33414559 570.46033848 341.35774431 571.431175 341.38205814 572.43143082 C341.28974402 580.0549607 338.45823359 584.74399462 333.5 590.4375 C330.89892578 592.63574219 330.89892578 592.63574219 328.4453125 593.984375 C327.51396484 594.51160156 326.58261719 595.03882813 325.62304688 595.58203125 C324.63369141 596.11183594 323.64433594 596.64164063 322.625 597.1875 C321.57634766 597.77402344 320.52769531 598.36054687 319.44726562 598.96484375 C317.24413014 600.19419597 315.0353557 601.41349251 312.82128906 602.62304688 C308.56447125 604.94858863 304.33538696 607.32203658 300.10546875 609.69604492 C298.02385944 610.86334989 295.940503 612.02754441 293.85546875 613.1887207 C286.72541019 617.16284263 279.66193893 621.23856231 272.625 625.375 C263.11383166 630.96144485 253.50787425 636.35618917 243.85253906 641.68896484 C235.05923596 646.55225103 226.32574559 651.51214313 217.61010742 656.51257324 C209.35273532 661.24931151 201.06643571 665.93017367 192.75 670.5625 C184.61255787 675.0980499 176.53460007 679.72222361 168.5 684.4375 C159.43804322 689.75570259 150.30807762 694.93620852 141.13012695 700.05126953 C133.28902812 704.42501785 125.47984057 708.85262992 117.6875 713.3125 C117.10604218 713.64519897 116.52458435 713.97789795 115.92550659 714.32067871 C111.7827758 716.69139051 107.64123961 719.06418456 103.5 721.4375 C98.7716599 724.14727862 94.04279081 726.85612776 89.3125 729.5625 C88.44289642 730.06006805 88.44289642 730.06006805 87.5557251 730.56768799 C78.21964123 735.90710376 68.84727035 741.17960633 59.45605469 746.42138672 C52.80234923 750.13812997 46.17384715 753.89596758 39.5625 757.6875 C32.95712258 761.47309654 26.33824549 765.23209456 19.6875 768.9375 C18.6212439 769.53353027 18.6212439 769.53353027 17.53344727 770.14160156 C16.18534894 770.88995725 14.83233085 771.62953145 13.47412109 772.359375 C12.14111595 773.08736791 10.82604613 773.84905448 9.52978516 774.640625 C5.21418267 777.12797941 1.93894091 778.05766342 -3.01708984 777.20361328 C-8.34017603 775.5611507 -13.02617674 772.67197054 -17.8125 769.875 C-18.99707622 769.1978848 -20.18247938 768.5222145 -21.36865234 767.84790039 C-23.84381982 766.43725102 -26.31347681 765.01761204 -28.77880859 763.58984375 C-32.38180921 761.50323378 -35.99579769 759.43637564 -39.61328125 757.375 C-43.12647457 755.37211897 -46.63899617 753.3681469 -50.14672852 751.35571289 C-57.8187983 746.955099 -65.52327282 742.6163536 -73.25 738.3125 C-82.39745813 733.2139995 -91.45855897 727.98304851 -100.49023438 722.68261719 C-108.55961132 717.95837335 -116.70235203 713.37565822 -124.86987305 708.82373047 C-132.71097188 704.44998215 -140.52015943 700.02237008 -148.3125 695.5625 C-148.89395782 695.22980103 -149.47541565 694.89710205 -150.07449341 694.55432129 C-154.81114735 691.84373208 -159.54617902 689.13031413 -164.28112793 686.41674805 C-168.41582725 684.04733996 -172.55116363 681.6790492 -176.6875 679.3125 C-177.26723572 678.98078796 -177.84697144 678.64907593 -178.4442749 678.30731201 C-187.78777857 672.96365277 -197.16842209 667.68847717 -206.56591797 662.44042969 C-216.58392347 656.84208559 -226.54477105 651.14649489 -236.5 645.4375 C-241.08231657 642.8107208 -245.6655565 640.1855647 -250.25 637.5625 C-250.84313995 637.22303345 -251.43627991 636.88356689 -252.0473938 636.53381348 C-260.42081832 631.74347868 -268.82322477 627.0085542 -277.25 622.3125 C-286.51890059 617.14378528 -295.7260936 611.87881343 -304.8659668 606.48486328 C-309.53222982 603.73269584 -314.20870476 601.03054009 -318.98046875 598.46484375 C-320.27041748 597.75847778 -320.27041748 597.75847778 -321.58642578 597.0378418 C-323.16418531 596.17740126 -324.75166542 595.33438911 -326.35107422 594.51489258 C-332.46674748 591.14357394 -336.28201219 586.62438406 -339.5 580.4375 C-340.40636514 576.57427702 -340.40155785 572.90903232 -340.31054688 568.95458984 C-340.31314986 567.83823434 -340.31575285 566.72187883 -340.31843472 565.57169437 C-340.31859454 561.84635346 -340.26864027 558.12341872 -340.21875 554.3984375 C-340.20853844 551.71383125 -340.20112165 549.02935086 -340.19715881 546.34474182 C-340.1830192 540.55153385 -340.14304737 534.75896679 -340.08547974 528.96603394 C-340.0012433 520.48562951 -339.95636008 512.005354 -339.9202019 503.52462471 C-339.85970532 489.59023277 -339.76733103 475.65623725 -339.65576172 461.72216797 C-339.54832909 448.2915713 -339.45688988 434.86102335 -339.38720703 421.43017578 C-339.38293339 420.60834926 -339.37865975 419.78652275 -339.37425661 418.93979239 C-339.35280601 414.79941272 -339.33163303 410.65903168 -339.31056213 406.51865005 C-339.15515708 376.09049587 -338.94977918 345.66293486 -338.70397949 315.23538208 C-338.6859925 313.00690269 -338.66801128 310.77842325 -338.65004492 308.54994369 C-338.6382709 307.08961593 -338.62648137 305.62928831 -338.614676 304.16896081 C-338.5241809 292.94119974 -338.4483795 281.7134018 -338.38109493 270.48547459 C-338.32803889 261.69319089 -338.26558373 252.90101919 -338.19350529 244.10887051 C-338.15420574 239.28766731 -338.11926452 234.4665463 -338.09671021 229.64523315 C-338.07634553 225.33160314 -338.04259401 221.01830626 -337.99743462 216.70486641 C-337.98377556 215.17505124 -337.97508074 213.64518169 -337.97194099 212.11530876 C-337.96706556 210.06621556 -337.94232876 208.01719798 -337.91650391 205.96826172 C-337.90841705 204.84120819 -337.9003302 203.71415466 -337.89199829 202.552948 C-337.31536103 197.97006222 -335.73004985 194.62394734 -332.40625 191.41796875 C-328.37619192 188.67167917 -324.21445709 186.20154446 -320 183.75 C-319.04657715 183.19111084 -318.0931543 182.63222168 -317.11083984 182.05639648 C-315.02376072 180.83345949 -312.93566083 179.61226331 -310.84667969 178.39257812 C-307.37671871 176.36548099 -303.91050648 174.33210426 -300.4453125 172.296875 C-289.14068074 165.65912435 -277.82560243 159.03941143 -266.5 152.4375 C-257.72400826 147.32130235 -248.95250507 142.19749496 -240.1875 137.0625 C-239.57828705 136.70561096 -238.9690741 136.34872192 -238.34140015 135.98101807 C-229.4803588 130.78831633 -220.64150158 125.55952642 -211.8125 120.3125 C-201.89031815 114.41722466 -191.91640888 108.6182954 -181.91064453 102.86621094 C-174.24920848 98.45807064 -166.62589054 93.98997574 -159.02246094 89.48266602 C-151.50730918 85.02837014 -143.97536805 80.60319116 -136.4375 76.1875 C-135.82723969 75.82996643 -135.21697937 75.47243286 -134.58822632 75.10406494 C-131.47154708 73.27813579 -128.35471432 71.45246894 -125.23779297 69.62695312 C-119.75942013 66.41820463 -114.28247753 63.2070165 -108.80545044 59.99597168 C-105.7870278 58.22637734 -102.76850895 56.45694712 -99.75 54.6875 C-98.54166621 53.97916745 -97.33333287 53.27083412 -96.125 52.5625 C-93.70833333 51.14583333 -91.29166667 49.72916667 -88.875 48.3125 C-87.97784271 47.78657761 -87.97784271 47.78657761 -87.06256104 47.25003052 C-85.85403037 46.54158502 -84.64549359 45.83314996 -83.43695068 45.12472534 C-80.41908623 43.3556937 -77.40132784 41.58648164 -74.38378906 39.81689453 C-68.9111009 36.60776397 -63.43762625 33.40001302 -57.9602356 30.19891357 C-54.88964282 28.40432122 -51.81974441 26.60854304 -48.75 24.8125 C-48.15407043 24.46396973 -47.55814087 24.11543945 -46.94415283 23.75634766 C-40.34942835 19.8975102 -33.77123134 16.01354533 -27.2265625 12.0703125 C-26.6440271 11.71947601 -26.0614917 11.36863953 -25.46130371 11.00717163 C-22.69676083 9.34093387 -19.93510151 7.67013574 -17.17675781 5.99365234 C-16.20834961 5.40793457 -15.23994141 4.8222168 -14.2421875 4.21875 C-13.3951123 3.70376953 -12.54803711 3.18878906 -11.67529297 2.65820312 C-7.77637372 0.47025742 -4.41246055 0.16107433 0 0 Z M-42.04638672 88.95263672 C-44.69169108 90.55350648 -47.36003143 92.10965886 -50.03515625 93.66015625 C-54.09357235 96.01456977 -58.14276861 98.38388199 -62.1875 100.76171875 C-68.41183278 104.40511305 -74.69718092 107.9321073 -81 111.4375 C-90.1573951 116.5355118 -99.23693841 121.75058449 -108.27832031 127.05126953 C-115.90799141 131.52028929 -123.5699183 135.93086131 -131.25 140.3125 C-131.83298859 140.64519897 -132.41597717 140.97789795 -133.01663208 141.32067871 C-137.77382091 144.0351369 -142.53262101 146.74676525 -147.29150391 149.45825195 C-151.44508979 151.82501435 -155.59796261 154.19302208 -159.75 156.5625 C-160.33258575 156.89487671 -160.91517151 157.22725342 -161.51541138 157.56970215 C-169.60173418 162.1850044 -177.65537387 166.85351067 -185.6875 171.5625 C-194.77795581 176.89112814 -203.94575529 182.0666316 -213.15185547 187.19238281 C-221.23884522 191.70540834 -229.24979769 196.33782398 -237.234375 201.02929688 C-242.78214597 204.28432938 -248.35004743 207.4985654 -253.94921875 210.6640625 C-254.57866898 211.02063934 -255.2081192 211.37721619 -255.85664368 211.74459839 C-258.92142643 213.48060713 -261.98890833 215.21143369 -265.06176758 216.93310547 C-278.52156106 224.04656284 -278.52156106 224.04656284 -286.5 236.4375 C-287.06106981 240.39600732 -287.040512 244.30405919 -287.00793457 248.29707336 C-287.01417453 249.47629417 -287.0204145 250.65551498 -287.02684355 251.87046975 C-287.03999536 255.12641853 -287.03531998 258.38176615 -287.02289867 261.63769948 C-287.01382397 265.15589799 -287.02783005 268.67401712 -287.03881836 272.19219971 C-287.05658413 279.07833907 -287.05277183 285.96430381 -287.0411678 292.85044996 C-287.03212387 298.44991257 -287.03091362 304.04932635 -287.03526306 309.64879417 C-287.03587599 310.4466137 -287.03648893 311.24443323 -287.03712043 312.0664291 C-287.03839938 313.6873668 -287.03969623 315.30830449 -287.0410108 316.92924216 C-287.05241148 332.12202872 -287.0393121 347.31471869 -287.01780933 362.50748941 C-286.99994911 375.52937405 -287.00303455 388.551116 -287.02148438 401.57299805 C-287.04291795 416.70781098 -287.05130205 431.8425392 -287.03903532 446.9773652 C-287.03776118 448.59316296 -287.0365037 450.20896074 -287.03526306 451.82475853 C-287.03464596 452.61967866 -287.03402886 453.41459879 -287.03339306 454.23360742 C-287.02994684 459.82154896 -287.03575298 465.40943657 -287.04518127 470.99736977 C-287.05643077 477.81436822 -287.05329994 484.63118257 -287.0320583 491.44816009 C-287.02158572 494.92301362 -287.0173604 498.39756085 -287.03065491 501.87241173 C-287.04162086 505.64756975 -287.02783194 509.42187188 -287.00793457 513.19697571 C-287.01685746 514.28396155 -287.02578034 515.3709474 -287.03497362 516.4908722 C-286.93470547 526.33091894 -284.6396332 535.25124034 -277.69921875 542.5078125 C-273.35286825 546.32148417 -268.6907404 549.86775405 -263.5 552.4375 C-259.91658274 552.03218885 -259.52313171 551.4663766 -257.125 548.47265625 C-256.23838174 547.15618811 -255.36418615 545.83130109 -254.5 544.5 C-253.79194214 543.44039062 -253.79194214 543.44039062 -253.06958008 542.359375 C-251.5354881 540.05911825 -250.01750185 537.74872812 -248.5 535.4375 C-246.91496235 533.04553409 -245.32655501 530.65585281 -243.73632812 528.26733398 C-242.73265946 526.75755939 -241.73243565 525.24548677 -240.73632812 523.73071289 C-226.95109472 502.86934568 -208.37085919 489.17331818 -186.5 477.4375 C-185.40751953 476.8492041 -185.40751953 476.8492041 -184.29296875 476.24902344 C-151.10108928 458.72153268 -113.40157891 448.93244665 -77.46499634 438.71647644 C-29.68405833 425.10821701 17.20383037 409.99149395 62.5 389.4375 C64.25787842 388.64375977 64.25787842 388.64375977 66.05126953 387.83398438 C78.69817408 382.11549332 91.28598582 376.38058214 103.26171875 369.3359375 C106.09658862 367.67399931 108.95912612 366.13758225 111.875 364.625 C135.0828567 352.0074755 158.93363771 334.14545286 175.5 313.4375 C174.9225 314.55125 174.345 315.665 173.75 316.8125 C172.23954444 319.82192851 170.92881176 322.8333329 169.734375 325.98046875 C157.87647983 355.87293428 138.68492308 383.42792051 117.5 407.4375 C116.66984375 408.40171875 115.8396875 409.3659375 114.984375 410.359375 C109.32306919 416.80400614 103.23348402 422.14758378 96.5 427.4375 C94.74940117 428.9159579 92.99940662 430.39513159 91.25 431.875 C80.19535668 440.90400556 67.86052717 448.34468308 55.5 455.4375 C54.84306152 455.81793457 54.18612305 456.19836914 53.50927734 456.59033203 C35.34731422 467.00668778 16.27131929 472.32425261 -4.06835938 476.88427734 C-5.53669845 477.21833923 -7.00038114 477.57569156 -8.4519043 477.9765625 C-16.43876252 479.77405783 -25.06996182 479.53205382 -33.22314453 479.7277832 C-92.23209358 481.17077865 -164.64045488 483.83956899 -214.5 518.4375 C-216.03333984 519.41783203 -216.03333984 519.41783203 -217.59765625 520.41796875 C-231.22773106 529.33681389 -246.19017496 542.50802488 -251.5 558.4375 C-242.89741368 563.80463932 -234.20328801 568.94792891 -225.375 573.9375 C-215.75013106 579.39865093 -206.19217344 584.95705029 -196.6875 590.625 C-187.47427684 596.11699933 -178.19850663 601.4731794 -168.84375 606.7199707 C-161.49532016 610.85027307 -154.231975 615.11152295 -146.98583984 619.41821289 C-139.7927999 623.68808026 -132.56118811 627.88786287 -125.3125 632.0625 C-123.65057617 633.01962891 -123.65057617 633.01962891 -121.95507812 633.99609375 C-119.79343626 635.24048106 -117.63165669 636.4846292 -115.46972656 637.72851562 C-102.80196085 645.01841697 -90.17797159 652.3808775 -77.57458496 659.78137207 C-65.5662084 666.83074114 -53.52460773 673.82187594 -41.43457031 680.73046875 C-39.38147206 681.9247502 -37.34549338 683.14873002 -35.32324219 684.39453125 C-33.76138184 685.34779297 -33.76138184 685.34779297 -32.16796875 686.3203125 C-31.23879639 686.8992627 -30.30962402 687.47821289 -29.35229492 688.07470703 C-24.24013297 690.51723789 -18.9766059 690.62095047 -13.5 689.4375 C-6.12184954 686.33248129 0.74597688 682.06227551 7.625 678 C9.7551729 676.74993963 11.88538225 675.49994135 14.015625 674.25 C15.09392578 673.61578125 16.17222656 672.9815625 17.28320312 672.328125 C22.30774166 669.37502646 27.34090257 666.43676544 32.375 663.5 C33.35871582 662.92580322 34.34243164 662.35160645 35.35595703 661.76000977 C43.81697738 656.82567221 52.30123376 651.93209742 60.78857422 647.04321289 C69.03197379 642.29203949 77.25363822 637.50460381 85.4675293 632.70263672 C92.73205189 628.45919905 100.01921992 624.25627283 107.3125 620.0625 C116.2090132 614.94471336 125.05646839 609.75092418 133.875 604.5 C144.26038225 598.31840391 154.71761037 592.27896782 165.22119141 586.30151367 C175.69613705 580.33892947 186.11047462 574.2760541 196.51171875 568.18603516 C201.75448937 565.11832901 207.00258939 562.05976004 212.25 559 C215.05542026 557.36358402 217.86077466 555.72705536 220.66601562 554.09033203 C222.67475853 552.91879607 224.68391499 551.74796908 226.69335938 550.57763672 C227.74845703 549.96291504 228.80355469 549.34819336 229.890625 548.71484375 C230.84485352 548.15917725 231.79908203 547.60351074 232.78222656 547.03100586 C233.6790918 546.50514893 234.57595703 545.97929199 235.5 545.4375 C236.82789551 544.68255249 236.82789551 544.68255249 238.18261719 543.91235352 C242.92341575 540.89516387 245.74954942 536.69216117 247.5 531.4375 C247.80142597 528.98628418 247.80142597 528.98628418 247.76844215 526.41828823 C247.77735784 525.42586603 247.78627353 524.43344382 247.79545939 523.41094822 C247.79509066 522.32790962 247.79472194 521.24487101 247.79434204 520.12901306 C247.80537211 518.39426935 247.80537211 518.39426935 247.816625 516.62448031 C247.83484166 513.41755675 247.84409004 510.21075352 247.84940362 507.00378716 C247.85722713 503.54247066 247.87638428 500.08121294 247.89382935 496.61993408 C247.93333581 488.25549188 247.9534994 479.89104494 247.97128493 471.52653274 C247.98006491 467.57673748 247.99079579 463.62694753 248.00126266 459.67715645 C248.03530454 446.52382364 248.06427669 433.37049408 248.07876015 420.21712399 C248.08257936 416.80433587 248.08642008 413.39154778 248.09033203 409.97875977 C248.09129951 409.13062553 248.09226699 408.28249129 248.09326379 407.40865601 C248.10980337 393.72191799 248.16036489 380.03553307 248.22549339 366.34894865 C248.2919838 352.25965367 248.32768993 338.17053678 248.33404863 324.08108431 C248.33834963 316.18594888 248.35540804 308.29132625 248.40697098 300.39634514 C248.45086775 293.65980754 248.46625543 286.9239069 248.44703741 280.1872425 C248.43807952 276.76227409 248.4454992 273.33965485 248.4805603 269.91470528 C248.65367608 251.97737624 246.15156572 236.56831948 240.50664401 219.52987683 C239.20121898 215.51965467 238.03667117 211.47544711 236.88515246 207.41880935 C236.0802536 204.59290045 235.24637953 201.77655502 234.40625 198.9609375 C233.14052919 194.68642525 231.937348 190.39941309 230.77017212 186.0973053 C229.94885047 183.09288973 229.10042972 180.09646234 228.24822998 177.10067749 C227.83790091 175.63531123 227.43885794 174.16673014 227.05206299 172.69497681 C224.97913472 164.83184621 223.19775445 158.46236349 216.00488281 153.82446289 C215.17827148 153.36676514 214.35166016 152.90906738 213.5 152.4375 C212.64760742 151.94435303 211.79521484 151.45120605 210.91699219 150.94311523 C208.13728923 149.38754099 205.3229983 147.9128358 202.5 146.4375 C200.46284425 145.31848962 198.42908966 144.19326946 196.3984375 143.0625 C195.34350098 142.47670166 194.28856445 141.89090332 193.20166016 141.28735352 C188.50030743 138.6730757 183.79942863 136.05795161 179.09960938 133.44091797 C176.74238078 132.12851116 174.38415462 130.81795178 172.02539062 129.50830078 C168.72367999 127.67502262 165.42382216 125.83847005 162.125 124 C161.08690186 123.42241943 160.04880371 122.84483887 158.97924805 122.24975586 C152.44428594 118.59193427 146.07216394 114.77356047 139.85546875 110.59765625 C137.64055581 109.27751865 137.64055581 109.27751865 135.515625 109.5 C132.73026736 110.79551518 130.49465133 112.49726037 128.0625 114.375 C127.54244385 114.77396484 127.0223877 115.17292969 126.48657227 115.58398438 C125.3825124 116.43201841 124.28058914 117.28284032 123.18066406 118.13623047 C121.53078805 119.41366207 119.87246519 120.67917959 118.2109375 121.94140625 C106.42775591 130.69688631 106.42775591 130.69688631 95.5 140.4375 C91.36582995 140.10384805 88.34638927 138.42510136 84.80078125 136.3671875 C83.68767578 135.72587891 82.57457031 135.08457031 81.42773438 134.42382812 C80.22259536 133.72015635 79.01751891 133.01637743 77.8125 132.3125 C76.55442075 131.58462184 75.29595088 130.85741844 74.03710938 130.13085938 C71.44782365 128.63495912 68.86085478 127.13517135 66.27587891 125.63183594 C61.74470687 122.99692748 57.20384264 120.37891134 52.6628418 117.76098633 C50.54539294 116.54020474 48.42837149 115.31868152 46.31176758 114.09643555 C30.23577211 104.81380134 14.14509007 95.55136213 -2.0625 86.5 C-2.78824219 86.09289795 -3.51398438 85.6857959 -4.26171875 85.26635742 C-18.21834959 77.51666449 -29.35119149 81.25898731 -42.04638672 88.95263672 Z " fill="#F5F5F5" transform="translate(559.5,190.5625)"/>
<path d="M0 0 C4.32096939 1.95869888 8.37945 4.3718641 12.4765625 6.75390625 C14.58347238 7.94476836 16.69164531 9.13339742 18.80078125 10.3203125 C25.45629289 14.08242951 32.08059977 17.8969514 38.69812012 21.72540283 C41.49012837 23.3400686 44.284207 24.95114163 47.078125 26.5625 C50.26702492 28.40196115 53.45567767 30.24184003 56.64331055 32.08349609 C68.30642359 38.81964983 79.9893722 45.52328557 91.70849609 52.16162109 C93.38322866 53.12498375 95.04650531 54.10922308 96.68603516 55.13134766 C99.94579543 57.19480831 99.94579543 57.19480831 103.68359375 57.70703125 C105.86259158 56.54869689 107.38509968 55.22152553 109.1640625 53.50390625 C115.54339315 47.64039606 122.48605045 42.53583638 129.40234375 37.33154297 C131.32174272 35.87166112 133.21553074 34.38541443 135.1015625 32.8828125 C135.64514404 32.45605225 136.18872559 32.02929199 136.7487793 31.58959961 C138.19091241 30.45605418 139.62505975 29.31236966 141.05859375 28.16796875 C143.4765625 26.75390625 143.4765625 26.75390625 145.31640625 26.9987793 C147.88190965 27.89560367 150.09215663 29.07983886 152.45703125 30.421875 C153.93659302 31.25634155 153.93659302 31.25634155 155.44604492 32.10766602 C157.03896362 33.01536743 157.03896362 33.01536743 158.6640625 33.94140625 C160.93477062 35.22548186 163.20560755 36.50932971 165.4765625 37.79296875 C166.05750168 38.12226883 166.63844086 38.45156891 167.23698425 38.79084778 C171.11972066 40.99139328 175.01302225 43.17193191 178.9140625 45.33984375 C190.07863446 51.54672421 201.16833761 57.85405175 212.13549805 64.40454102 C216.8907558 67.24337066 221.67016778 69.98618636 226.56640625 72.57592773 C231.16768456 75.41350031 232.18134938 78.24456966 233.7109375 83.421875 C233.90960419 84.0847049 234.10827087 84.74753479 234.31295776 85.43045044 C234.96012693 87.59812852 235.59346599 89.76958052 236.2265625 91.94140625 C236.67418254 93.45164888 237.1225941 94.96165712 237.57177734 96.47143555 C238.68383051 100.21789706 239.78460422 103.9675526 240.88098145 107.71862793 C241.71777671 110.57820725 242.56230413 113.43549286 243.40625 116.29296875 C244.50296355 120.0115541 245.57601476 123.73588028 246.63563156 127.46517563 C247.84428136 131.67159809 249.14679105 135.8320008 250.52199173 139.98675919 C256.10609915 157.32554044 257.61211127 173.02072139 257.44824219 191.15136719 C257.44810447 193.97010165 257.46000798 196.78875869 257.47125244 199.60746765 C257.49114526 206.38716349 257.46921906 213.16606255 257.43185124 219.94565895 C257.38982706 227.86046795 257.39060832 235.7751157 257.39254156 243.69001523 C257.39453164 257.80897179 257.35821433 271.92756209 257.29980469 286.04638672 C257.24326464 299.72060804 257.2151317 313.39450791 257.21777344 327.06884766 C257.21793326 327.9142359 257.21809309 328.75962415 257.21825776 329.63063022 C257.21841917 330.47462502 257.21858059 331.31861982 257.2187469 332.18819022 C257.22150718 347.82032942 257.1979692 363.45233351 257.16213404 379.08442883 C257.15009828 384.59384472 257.14581961 390.10323569 257.14400482 395.61266327 C257.14127377 402.31621573 257.12337561 409.01953944 257.08667359 415.72299483 C257.068248 419.13885961 257.05600257 422.55443245 257.06105042 425.97035027 C257.06301455 429.67547607 257.04038147 433.37966112 257.01141357 437.08465576 C257.01760798 438.15895584 257.02380239 439.23325592 257.03018451 440.34011054 C256.92969601 448.11875206 255.17192068 453.21624864 250.4765625 459.37890625 C247.68752919 461.58689095 245.25800725 462.91454512 242.0703125 464.44140625 C235.49717249 467.68161707 229.24825676 471.3449981 222.9765625 475.12890625 C220.59707351 476.55417882 218.21497491 477.97504335 215.83203125 479.39453125 C215.22606613 479.75568024 214.62010101 480.11682922 213.99577332 480.48892212 C207.47309082 484.36670725 200.88561012 488.12861032 194.2890625 491.87890625 C182.61413011 498.5211368 170.99491752 505.25392778 159.40332031 512.04052734 C145.02699936 520.45669522 130.62686195 528.82996775 116.19238281 537.14599609 C104.92859 543.63890503 93.70103486 550.19333181 82.4765625 556.75390625 C70.16123463 563.95207313 57.83670166 571.13289141 45.4765625 578.25390625 C36.7978988 583.25426494 28.12946364 588.27158124 19.4765625 593.31640625 C18.51621094 593.87585938 17.55585937 594.4353125 16.56640625 595.01171875 C11.20019634 598.14389471 5.86651163 601.32066534 0.5703125 604.57006836 C-5.11231026 607.78310915 -11.21079013 607.74412545 -17.5234375 606.75390625 C-22.50264057 604.84877532 -26.97661368 601.89167826 -31.46289062 599.04931641 C-34.10076948 597.39095323 -36.78636236 595.82347506 -39.47924805 594.2565918 C-41.59442538 593.02507508 -43.70204957 591.78137714 -45.80859375 590.53515625 C-60.74920748 581.71082629 -75.7708461 573.02486743 -90.8059082 564.36279297 C-103.06006048 557.29903258 -115.2710676 550.16180958 -127.48242188 543.02441406 C-139.90426341 535.76537483 -152.34502171 528.54086454 -164.81201172 521.35961914 C-173.04801266 516.61271002 -181.2620664 511.82918093 -189.46899414 507.03222656 C-196.95087862 502.66250535 -204.45291 498.32852573 -211.9609375 494.00390625 C-215.16019905 492.15835199 -218.35906748 490.3121197 -221.55761719 488.46533203 C-223.47159747 487.36087025 -225.38626184 486.25759271 -227.30175781 485.15576172 C-229.73282698 483.75609666 -232.15996595 482.34988243 -234.5859375 480.94140625 C-235.288396 480.53889648 -235.99085449 480.13638672 -236.71459961 479.72167969 C-241.40896658 476.98284809 -241.40896658 476.98284809 -242.5234375 474.75390625 C-241.31066344 472.48681103 -240.0578656 470.39512025 -238.6484375 468.25390625 C-238.03476318 467.31212524 -238.03476318 467.31212524 -237.40869141 466.35131836 C-233.61513788 460.66098807 -229.28664529 455.65850796 -224.5234375 450.75390625 C-223.96269531 450.13128906 -223.40195312 449.50867188 -222.82421875 448.8671875 C-217.78975119 443.44264013 -211.743172 439.69332396 -205.5234375 435.75390625 C-204.55792969 435.10421875 -203.59242188 434.45453125 -202.59765625 433.78515625 C-178.11773814 417.78271951 -148.27417983 409.27722184 -119.5234375 405.75390625 C-117.56809725 405.503139 -115.61275934 405.25235289 -113.65750122 405.00094604 C-104.62132494 403.84429505 -95.57505753 402.78187618 -86.5234375 401.75390625 C-85.21681152 401.6053418 -83.91018555 401.45677734 -82.56396484 401.30371094 C-63.41539185 399.14715371 -44.47461635 397.70999575 -25.21313477 397.14599609 C-11.33608079 396.94355557 -11.33608079 396.94355557 2.3085022 394.79867554 C8.60886562 393.38770144 14.95080221 393.0292166 21.3828125 392.64111328 C22.06595016 392.59909357 22.74908783 392.55707386 23.45292664 392.51378083 C41.97922105 391.40206625 60.51621721 391.49512222 79.06840515 391.55111837 C84.02769379 391.56386615 88.98698657 391.56481471 93.94628906 391.56716919 C103.28089552 391.57331494 112.61545352 391.58962922 121.95003891 391.60986817 C132.60111562 391.63244604 143.252195 391.64327485 153.90328979 391.65325904 C175.76107411 391.67400405 197.61881522 391.70904121 219.4765625 391.75390625 C219.9072532 363.72021497 220.19962609 335.6880026 220.3289032 307.6512289 C220.39213451 294.63184854 220.50002287 281.61574243 220.71435547 268.59790039 C220.90113416 257.2466217 221.00278795 245.89825531 221.00371933 234.54538494 C221.00714681 228.53649003 221.05216092 222.53460961 221.19927979 216.52737236 C223.16026354 192.8806354 223.16026354 192.8806354 216.10771751 171.2990799 C210.55590876 166.05076484 204.43860686 163.10161942 197.2403574 160.71895885 C193.58857962 159.44384338 190.79322876 157.65717836 187.62109375 155.46484375 C178.31602461 149.64259826 169.00268307 143.83470904 159.6640625 138.06640625 C153.07830256 133.99834995 146.51555102 129.89671664 139.9765625 125.75390625 C115.90772527 110.51432835 91.53125345 95.86766295 66.82763672 81.68164062 C63.52091512 79.77942048 60.21868054 77.86965779 56.91796875 75.95703125 C45.09131472 69.10726865 33.22016914 62.34932288 21.28198242 55.69580078 C-1.18260452 43.15080565 -1.18260452 43.15080565 -7.1640625 38.859375 C-9.47519962 37.44923649 -9.47519962 37.44923649 -11.82397461 38.49829102 C-14.64367376 39.80983237 -17.35540767 41.22831629 -20.07421875 42.73828125 C-21.15243896 43.33632568 -22.23065918 43.93437012 -23.34155273 44.55053711 C-24.50649189 45.20140207 -25.67128295 45.85253216 -26.8359375 46.50390625 C-27.43334747 46.83681671 -28.03075745 47.16972717 -28.64627075 47.51272583 C-37.96152516 52.70470555 -47.20105208 58.01756674 -56.39868164 63.41552734 C-63.99420294 67.87191495 -71.62424129 72.26550307 -79.2734375 76.62890625 C-79.85660736 76.96169586 -80.43977722 77.29448547 -81.0406189 77.63735962 C-85.79762523 80.35172526 -90.55623608 83.06327268 -95.31494141 85.7746582 C-99.46852729 88.1414206 -103.62140011 90.50942833 -107.7734375 92.87890625 C-108.35602325 93.21128296 -108.93860901 93.54365967 -109.53884888 93.8861084 C-117.62517168 98.50141065 -125.67881137 103.16991692 -133.7109375 107.87890625 C-142.80139331 113.20753439 -151.96919279 118.38303785 -161.17529297 123.50878906 C-169.26858694 128.02533272 -177.28347328 132.665107 -185.27758789 137.35449219 C-194.24237907 142.60782027 -203.26030804 147.76465602 -212.29418945 152.89794922 C-214.44746616 154.12368764 -216.58604211 155.37570771 -218.70713711 156.65632915 C-221.35913841 158.19756267 -223.97396301 159.33219654 -226.85456181 160.37920094 C-231.79020876 162.36799403 -236.1321386 164.54789359 -239.5234375 168.75390625 C-242.50268749 176.60035583 -241.67531417 185.54427144 -241.43450558 193.78942883 C-241.35240303 197.24885164 -241.36964987 200.70798798 -241.37487793 204.16818237 C-241.37092055 210.15802849 -241.30608102 216.14468728 -241.20039177 222.1335659 C-241.04829132 230.80826293 -241.00051393 239.48118486 -240.97944946 248.15707723 C-240.9433462 262.25529444 -240.83879868 276.35207814 -240.68383789 290.44946289 C-240.67459188 291.29219843 -240.66534586 292.13493397 -240.65581966 293.00320695 C-240.63707994 294.7086573 -240.61833153 296.41410756 -240.59957445 298.11955773 C-240.59028056 298.96496452 -240.58098666 299.81037131 -240.57141113 300.68139648 C-240.56209357 301.52745714 -240.552776 302.37351779 -240.54317608 303.24521665 C-240.44078708 312.63219333 -240.35512811 322.01929801 -240.27563477 331.40649414 C-240.26850143 332.2466796 -240.26136809 333.08686505 -240.2540186 333.95251068 C-240.13634172 347.99316784 -240.05919282 362.03385197 -240.0049153 376.07488996 C-239.96909116 384.72117697 -239.89382498 393.36546277 -239.76637764 402.01089481 C-239.68079709 407.94216654 -239.63020089 413.87306928 -239.60631787 419.80490806 C-239.59115502 423.22042627 -239.55965022 426.63368118 -239.48279762 430.04841423 C-238.97037842 455.37302902 -238.97037842 455.37302902 -247.97896671 466.34904957 C-251.49504317 469.6722003 -251.49504317 469.6722003 -254.5234375 469.75390625 C-265.30892824 464.41440378 -272.77423328 457.11080315 -276.70458889 445.80855787 C-278.07183727 440.70814318 -278.07449534 435.76665754 -278.03137207 430.51338196 C-278.03761203 429.32948118 -278.043852 428.1455804 -278.05028105 426.92580384 C-278.06338918 423.67083938 -278.05878935 420.41648117 -278.04633617 417.16153276 C-278.0372336 413.63935486 -278.05128083 410.11725486 -278.06225586 406.59509277 C-278.07998883 399.70836592 -278.07622501 392.821814 -278.0646053 385.93508045 C-278.05555279 380.33709402 -278.0543548 374.73915644 -278.05870056 369.14116478 C-278.05931349 368.34288555 -278.05992643 367.54460633 -278.06055793 366.72213682 C-278.06183689 365.10022653 -278.06313374 363.47831626 -278.0644483 361.856406 C-278.07583821 346.66941972 -278.06276423 331.48253024 -278.04124683 316.29555985 C-278.02336696 303.27275649 -278.02649033 290.25009573 -278.04492188 277.22729492 C-278.06633892 262.08809427 -278.07475057 246.94897825 -278.06247282 231.80976456 C-278.06119867 230.19490986 -278.05994119 228.58005515 -278.05870056 226.96520042 C-278.05808346 226.17074312 -278.05746636 225.37628581 -278.05683056 224.55775404 C-278.05338092 218.96686548 -278.05919743 213.37603075 -278.06861877 207.78515053 C-278.07984896 200.97143272 -278.07677695 194.15789919 -278.0554958 187.34420244 C-278.04500055 183.86969959 -278.04083728 180.39550375 -278.05409241 176.92100334 C-278.06501807 173.15152226 -278.05131836 169.38290558 -278.03137207 165.61347961 C-278.04029496 164.51980161 -278.04921784 163.4261236 -278.05841112 162.29930383 C-277.98360566 155.01420124 -276.93617609 149.42000901 -271.78710938 143.88867188 C-271.19478516 143.48326172 -270.60246094 143.07785156 -269.9921875 142.66015625 C-269.29351562 142.18191406 -268.59484375 141.70367187 -267.875 141.2109375 C-263.34136388 138.40189053 -258.70453303 135.80789503 -254.0234375 133.25390625 C-245.52695607 128.55840017 -237.0820526 123.79458454 -228.7109375 118.87890625 C-220.09470072 113.82649045 -211.44906463 108.82852332 -202.7734375 103.87890625 C-201.89895462 103.37985779 -201.89895462 103.37985779 -201.00680542 102.87072754 C-196.24961659 100.15626935 -191.49081649 97.444641 -186.73193359 94.7331543 C-182.57834771 92.3663919 -178.42547489 89.99838417 -174.2734375 87.62890625 C-173.69085175 87.29652954 -173.10826599 86.96415283 -172.50802612 86.6217041 C-164.42170332 82.00640185 -156.36806363 77.33789558 -148.3359375 72.62890625 C-139.24548169 67.30027811 -130.07768221 62.12477465 -120.87158203 56.99902344 C-112.77026172 52.4780006 -104.74831491 47.83216621 -96.74511719 43.14013672 C-86.19217659 36.95883488 -75.5700956 30.90025374 -64.94403076 24.84599304 C-60.61881 22.38090034 -56.29877627 19.90686696 -51.98046875 17.4296875 C-50.11501486 16.36046135 -48.24947791 15.29138025 -46.38391113 14.22235107 C-44.65473628 13.23085497 -42.92647013 12.2377746 -41.19824219 11.24462891 C-37.98030398 9.40175045 -34.7528875 7.57652051 -31.5234375 5.75390625 C-30.38608154 5.09849854 -29.24872559 4.44309082 -28.0769043 3.76782227 C-26.9506665 3.13416748 -25.82442871 2.5005127 -24.6640625 1.84765625 C-23.66020508 1.27595703 -22.65634766 0.70425781 -21.62207031 0.11523438 C-14.46476192 -3.02919925 -7.26831847 -2.57050288 0 0 Z " fill="#000000" transform="translate(550.5234375,273.24609375)"/>
<path d="M0 0 C0.66 0 1.32 0 2 0 C2.42506836 0.43070801 2.85013672 0.86141602 3.28808594 1.30517578 C5.44518538 3.44074115 7.72701994 4.66048696 10.390625 6.1171875 C11.48133301 6.71772949 12.57204102 7.31827148 13.69580078 7.93701172 C14.88051771 8.58303741 16.06525118 9.22903278 17.25 9.875 C19.71208048 11.22709163 22.17231458 12.58253118 24.6328125 13.9375 C25.25392914 14.27884979 25.87504578 14.62019958 26.51498413 14.97189331 C33.28133132 18.69434004 39.99438509 22.51005432 46.69628906 26.34716797 C55.04079453 31.09523294 63.49830966 35.49910511 72 40 C72 154.51 72 269.02 72 387 C71.34 387 70.68 387 70 387 C70 387.70125 70 388.4025 70 389.125 C67.32652462 396.81124171 55.79059909 401.16399969 49.125 404.9375 C47.3904983 405.92880206 45.65600115 406.92011219 43.92178345 407.91191101 C42.13172637 408.93477229 40.34039457 409.95537105 38.54882812 410.97558594 C32.97863113 414.14992162 27.42735355 417.357091 21.875 420.5625 C20.26069092 421.49340454 20.26069092 421.49340454 18.61376953 422.44311523 C10.4063079 427.17885393 2.2196333 431.94954819 -5.96142578 436.73071289 C-14.38569339 441.65051282 -22.83553896 446.52522138 -31.2890625 451.39453125 C-38.5395149 455.57349128 -45.77488269 459.77740506 -53 464 C-61.31751792 468.8610296 -69.65205653 473.69141103 -78 478.5 C-90.36022518 485.62086408 -102.68467327 492.80183378 -115 500 C-127.58962017 507.35848757 -140.18763552 514.70212444 -152.8125 522 C-153.86743652 522.61093506 -154.92237305 523.22187012 -156.00927734 523.85131836 C-160.9933725 526.72828096 -165.99162035 529.57832082 -171.0234375 532.37109375 C-171.8901709 532.85247803 -172.7569043 533.3338623 -173.64990234 533.82983398 C-178.04914999 536.02031747 -181.3018053 536.49530679 -186 535.125 C-191.70359021 531.08495694 -196.70361439 524.61899383 -199 518 C-199.6471833 513.00050904 -199.79950424 509.30585693 -197.125 504.9375 C-193.38320008 501.5258589 -190.39487074 501.67152771 -185.48828125 501.70703125 C-182.0266052 502.11460692 -180.2786248 503.41755856 -178 506 C-178 506.66 -178 507.32 -178 508 C-177.34854004 507.62415771 -176.69708008 507.24831543 -176.02587891 506.86108398 C-174.04313693 505.71719438 -172.06038893 504.57331522 -170.07763672 503.42944336 C-167.74328358 502.08267577 -165.40896765 500.73584393 -163.07470703 499.38891602 C-157.16021511 495.97622702 -151.24511559 492.56460594 -145.328125 489.15625 C-133.87918497 482.55959493 -122.44664526 475.93637825 -111.03857422 469.26928711 C-103.7068748 464.98755059 -96.3571345 460.7378624 -89 456.5 C-76.63977482 449.37913592 -64.31532673 442.19816622 -52 435 C-38.59382119 427.16424334 -25.17079317 419.35962289 -11.71582031 411.60791016 C0.50658166 404.61648054 0.50658166 404.61648054 12.60851192 397.42113221 C17.73408778 394.33578024 22.75791762 391.60087262 28.31065369 389.36150932 C39.82567229 384.44412746 39.82567229 384.44412746 47.36503983 374.95158625 C49.42426371 366.41597089 49.13093186 357.69750509 48.8701179 348.98315263 C48.7780901 345.01722847 48.82620125 341.05256204 48.85658264 337.08602905 C48.8902661 330.22740278 48.83680384 323.37400007 48.72271729 316.5163002 C48.55791587 306.60244588 48.52674842 296.69163743 48.52731276 286.77657674 C48.52463872 270.68854207 48.41515375 254.6031012 48.23779297 238.51611328 C48.06582029 222.89694654 47.94459134 207.27873273 47.89111328 191.65869141 C47.88779491 190.69458297 47.88447654 189.73047453 47.88105762 188.73715068 C47.8647204 183.90010292 47.84937563 179.06305261 47.83452415 174.22600007 C47.71019158 134.14909538 47.41222142 94.07491759 47 54 C46.21700027 53.68982941 45.43400055 53.37965881 44.62727356 53.06008911 C42.35812394 52.14450086 40.19493308 51.15516952 38.01171875 50.0546875 C37.30595703 49.70019531 36.60019531 49.34570312 35.87304688 48.98046875 C35.15181641 48.61566406 34.43058594 48.25085938 33.6875 47.875 C32.94693359 47.50246094 32.20636719 47.12992187 31.44335938 46.74609375 C29.62798783 45.83255194 27.81386718 44.91652513 26 44 C26 43.34 26 42.68 26 42 C23.69 41.34 21.38 40.68 19 40 C19 39.34 19 38.68 19 38 C17.6078125 37.566875 17.6078125 37.566875 16.1875 37.125 C13 36 13 36 10 34 C9.0398071 31.44557024 8.24582762 28.98782819 7.51953125 26.3671875 C7.30181564 25.61535187 7.08410004 24.86351624 6.85978699 24.08889771 C6.16688331 21.68712887 5.48955131 19.28128019 4.8125 16.875 C4.3454199 15.24580131 3.87733308 13.61689087 3.40820312 11.98828125 C2.26042747 7.99543837 1.12659736 3.9988676 0 0 Z " fill="#FEF75B" transform="translate(784,359)"/>
<path d="M0 0 C2.80168394 0.00253351 5.60336051 0.0004978 8.40504456 -0.00132751 C14.38022016 -0.0028834 20.35529578 0.00634648 26.33044624 0.023386 C34.96897315 0.04800442 43.60745284 0.0556043 52.24601101 0.05934998 C66.26917782 0.06587914 80.29229159 0.08574308 94.31542969 0.11425781 C107.91926818 0.14189078 121.52309215 0.16307883 135.12695312 0.17578125 C136.38956111 0.17696351 136.38956111 0.17696351 137.67767633 0.17816965 C141.90138661 0.1820854 146.125097 0.18587637 150.34880745 0.18960536 C185.26309364 0.22059089 220.17731825 0.27332882 255.09155273 0.34057617 C255.18438721 2.74533081 255.18438721 2.74533081 255.09155273 5.34057617 C253.60620117 6.86450195 253.60620117 6.86450195 251.45092773 8.16088867 C250.21439453 8.91740723 250.21439453 8.91740723 248.95288086 9.68920898 C248.00864258 10.23416016 247.0644043 10.77911133 246.09155273 11.34057617 C245.0493457 11.94998047 244.00713867 12.55938477 242.93334961 13.18725586 C239.4154521 15.21993151 235.88193213 17.22245262 232.34155273 19.21557617 C230.53757677 20.23251381 228.73427598 21.25058475 226.93255615 22.27151489 C224.69425334 23.53961267 222.45341541 24.80303524 220.20679158 26.05633783 C217.95374607 27.38616567 217.95374607 27.38616567 215.40205938 29.27958059 C206.89910071 35.15403111 200.29100444 36.4862507 189.86125183 36.3026123 C188.36509213 36.30610889 186.86893731 36.31312818 185.37280828 36.32332563 C181.29697218 36.34107476 177.22284232 36.30941395 173.14722335 36.26910114 C168.73909846 36.23435786 164.33105972 36.24625811 159.9228363 36.25231934 C152.29717129 36.25650194 144.67205642 36.23153135 137.04652977 36.18641663 C126.02157453 36.12123261 114.99688366 36.10054804 103.97175661 36.09051269 C86.08176921 36.0730298 68.19207463 36.01986159 50.30224609 35.9440918 C32.93019062 35.87059174 15.55821485 35.81399766 -1.81396484 35.7800293 C-2.88586785 35.77792751 -3.95777085 35.77582572 -5.06215576 35.77366024 C-10.43990267 35.76321949 -15.81765013 35.75310993 -21.19539797 35.74316502 C-65.76661715 35.66031269 -110.33751705 35.51947896 -154.90844727 35.34057617 C-133.77107989 13.64707228 -88.57178556 7.35415543 -60.07677364 4.07777119 C-56.1503636 3.61849396 -52.23489913 3.11584212 -48.32075596 2.56202221 C-32.16282831 0.3388566 -16.29178638 -0.07021692 0 0 Z " fill="#E7E7E7" transform="translate(514.908447265625,701.659423828125)"/>
<path d="M0 0 C75.24 0 150.48 0 228 0 C225.44017551 2.55982449 223.70781376 3.87758298 220.625 5.57421875 C219.73530518 6.06905762 218.84561035 6.56389648 217.92895508 7.07373047 C216.47912231 7.87254639 216.47912231 7.87254639 215 8.6875 C202.68967799 15.55209446 190.5740425 22.71333544 178.47583008 29.94287109 C177.68479385 30.39044518 177.68479385 30.39044518 176.8777771 30.84706116 C174.88202796 32.02933708 174.88202796 32.02933708 172.70254517 33.74949646 C162.83273337 40.64428529 152.89564009 40.1464233 141.234375 40.17578125 C139.11182614 40.1983377 136.98928766 40.22189107 134.86676025 40.24638367 C130.4252408 40.28814422 125.98467043 40.30128355 121.54296875 40.29711914 C117.03379642 40.29655203 112.52962896 40.34483087 108.02148438 40.44067383 C61.29402739 41.42011441 61.29402739 41.42011441 43.14154053 26.6913147 C40.11840432 24.3037462 36.87683274 22.49309713 33.49609375 20.66796875 C32.47563965 20.08160645 31.45518555 19.49524414 30.40380859 18.89111328 C29.42492676 18.3289209 28.44604492 17.76672852 27.4375 17.1875 C20.22946745 13.03479968 13.02395308 8.87884254 5.875 4.625 C5.25939209 4.26172607 4.64378418 3.89845215 4.00952148 3.52416992 C2.65517633 2.71180443 1.32405415 1.86085369 0 1 C0 0.67 0 0.34 0 0 Z " fill="#E5E5E5" transform="translate(426,774)"/>
<path d="M0 0 C4.07875637 1.73001108 7.82270975 3.92211327 11.625 6.1875 C12.70821533 6.81317871 13.79143066 7.43885742 14.9074707 8.08349609 C18.28230275 10.03802825 21.64201169 12.01669584 25 14 C27.06315773 15.20813231 29.12694082 16.41519742 31.19140625 17.62109375 C34.18078621 19.36742034 37.1696498 21.1145175 40.1550293 22.86767578 C49.51827117 28.35052281 59.03070195 33.54109285 68.58154297 38.68798828 C72.40442892 40.76190198 76.20352198 42.87821932 80 45 C78.59528666 48.32806924 77.03192763 50.04010672 74.15625 52.19921875 C73.40472656 52.76833984 72.65320313 53.33746094 71.87890625 53.92382812 C70.70134766 54.7968457 70.70134766 54.7968457 69.5 55.6875 C68.71496094 56.28111328 67.92992187 56.87472656 67.12109375 57.48632812 C61.35801977 61.82099011 61.35801977 61.82099011 59 63 C58.59007812 62.55543457 58.18015625 62.11086914 57.7578125 61.65283203 C55.89726732 59.90340275 54.10807907 58.78678287 51.875 57.5546875 C51.08609375 57.11769531 50.2971875 56.68070312 49.484375 56.23046875 C48.66453125 55.78316406 47.8446875 55.33585937 47 54.875 C46.18015625 54.41996094 45.3603125 53.96492188 44.515625 53.49609375 C39.89308436 50.94956184 39.89308436 50.94956184 35 49 C35 48.34 35 47.68 35 47 C34.22140625 46.78859375 33.4428125 46.5771875 32.640625 46.359375 C27.68904828 44.51050301 23.30725847 41.90786056 18.75 39.25 C17.85925781 38.73695313 16.96851563 38.22390625 16.05078125 37.6953125 C15.16261719 37.18226563 14.27445313 36.66921875 13.359375 36.140625 C12.47443359 35.62951172 11.58949219 35.11839844 10.67773438 34.59179688 C8.85552298 33.50857128 7.05496151 32.38826541 5.27539062 31.23632812 C4.40591797 30.67880859 3.53644531 30.12128906 2.640625 29.546875 C1.86750977 29.03479492 1.09439453 28.52271484 0.29785156 27.99511719 C-2.57886942 26.74931239 -4.03902573 27.12850648 -7 28 C-11.55993211 29.02796157 -14.05720601 29.471397 -18.375 27.3125 C-21.32694533 24.71197674 -22.61370201 22.78791017 -23.44140625 18.95703125 C-23.78787472 12.82118644 -21.93209891 9.53201792 -17.91796875 4.95703125 C-12.01407301 -1.06710677 -8.03467578 -1.84654277 0 0 Z " fill="#FEF759" transform="translate(607,259)"/>
<path d="M0 0 C0.84433594 0.04833984 1.68867187 0.09667969 2.55859375 0.14648438 C3.43128906 0.20255859 4.30398438 0.25863281 5.203125 0.31640625 C6.53537109 0.3947168 6.53537109 0.3947168 7.89453125 0.47460938 C10.08111696 0.60392358 12.26720394 0.73887267 14.453125 0.87890625 C14.453125 1.20890625 14.453125 1.53890625 14.453125 1.87890625 C1.088125 2.37390625 1.088125 2.37390625 -12.546875 2.87890625 C-7.96873569 0.5898366 -5.05751181 -0.30755139 0 0 Z " fill="#D7D14F" transform="translate(575.546875,664.12109375)"/>
</svg>
